<svg width="227" height="50" viewBox="0 0 227 50" fill="none" xmlns="http://www.w3.org/2000/svg">
<g filter="url(#filter0_d_28_32)">
<path d="M23.7902 31.24C22.7102 31.24 21.7035 31.0667 20.7702 30.72C19.8502 30.36 19.0502 29.8533 18.3702 29.2C17.6902 28.5467 17.1569 27.78 16.7702 26.9C16.3969 26.02 16.2102 25.0533 16.2102 24C16.2102 22.9467 16.3969 21.98 16.7702 21.1C17.1569 20.22 17.6902 19.4533 18.3702 18.8C19.0635 18.1467 19.8702 17.6467 20.7902 17.3C21.7102 16.94 22.7169 16.76 23.8102 16.76C25.0235 16.76 26.1169 16.9733 27.0902 17.4C28.0769 17.8133 28.9035 18.4267 29.5702 19.24L27.4902 21.16C27.0102 20.6133 26.4769 20.2067 25.8902 19.94C25.3035 19.66 24.6635 19.52 23.9702 19.52C23.3169 19.52 22.7169 19.6267 22.1702 19.84C21.6235 20.0533 21.1502 20.36 20.7502 20.76C20.3502 21.16 20.0369 21.6333 19.8102 22.18C19.5969 22.7267 19.4902 23.3333 19.4902 24C19.4902 24.6667 19.5969 25.2733 19.8102 25.82C20.0369 26.3667 20.3502 26.84 20.7502 27.24C21.1502 27.64 21.6235 27.9467 22.1702 28.16C22.7169 28.3733 23.3169 28.48 23.9702 28.48C24.6635 28.48 25.3035 28.3467 25.8902 28.08C26.4769 27.8 27.0102 27.38 27.4902 26.82L29.5702 28.74C28.9035 29.5533 28.0769 30.1733 27.0902 30.6C26.1169 31.0267 25.0169 31.24 23.7902 31.24ZM38.2652 31.24C37.1585 31.24 36.1319 31.06 35.1852 30.7C34.2519 30.34 33.4385 29.8333 32.7452 29.18C32.0652 28.5267 31.5319 27.76 31.1452 26.88C30.7719 26 30.5852 25.04 30.5852 24C30.5852 22.96 30.7719 22 31.1452 21.12C31.5319 20.24 32.0719 19.4733 32.7652 18.82C33.4585 18.1667 34.2719 17.66 35.2052 17.3C36.1385 16.94 37.1519 16.76 38.2452 16.76C39.3519 16.76 40.3652 16.94 41.2852 17.3C42.2185 17.66 43.0252 18.1667 43.7052 18.82C44.3985 19.4733 44.9385 20.24 45.3252 21.12C45.7119 21.9867 45.9052 22.9467 45.9052 24C45.9052 25.04 45.7119 26.0067 45.3252 26.9C44.9385 27.78 44.3985 28.5467 43.7052 29.2C43.0252 29.84 42.2185 30.34 41.2852 30.7C40.3652 31.06 39.3585 31.24 38.2652 31.24ZM38.2452 28.48C38.8719 28.48 39.4452 28.3733 39.9652 28.16C40.4985 27.9467 40.9652 27.64 41.3652 27.24C41.7652 26.84 42.0719 26.3667 42.2852 25.82C42.5119 25.2733 42.6252 24.6667 42.6252 24C42.6252 23.3333 42.5119 22.7267 42.2852 22.18C42.0719 21.6333 41.7652 21.16 41.3652 20.76C40.9785 20.36 40.5185 20.0533 39.9852 19.84C39.4519 19.6267 38.8719 19.52 38.2452 19.52C37.6185 19.52 37.0385 19.6267 36.5052 19.84C35.9852 20.0533 35.5252 20.36 35.1252 20.76C34.7252 21.16 34.4119 21.6333 34.1852 22.18C33.9719 22.7267 33.8652 23.3333 33.8652 24C33.8652 24.6533 33.9719 25.26 34.1852 25.82C34.4119 26.3667 34.7185 26.84 35.1052 27.24C35.5052 27.64 35.9719 27.9467 36.5052 28.16C37.0385 28.3733 37.6185 28.48 38.2452 28.48ZM48.3402 31V17H54.7002C56.2202 17 57.5602 17.2933 58.7202 17.88C59.8802 18.4533 60.7869 19.26 61.4402 20.3C62.0935 21.34 62.4202 22.5733 62.4202 24C62.4202 25.4133 62.0935 26.6467 61.4402 27.7C60.7869 28.74 59.8802 29.5533 58.7202 30.14C57.5602 30.7133 56.2202 31 54.7002 31H48.3402ZM51.5802 28.34H54.5402C55.4735 28.34 56.2802 28.1667 56.9602 27.82C57.6535 27.46 58.1869 26.9533 58.5602 26.3C58.9469 25.6467 59.1402 24.88 59.1402 24C59.1402 23.1067 58.9469 22.34 58.5602 21.7C58.1869 21.0467 57.6535 20.5467 56.9602 20.2C56.2802 19.84 55.4735 19.66 54.5402 19.66H51.5802V28.34ZM64.8636 31V17H68.1036V31H64.8636ZM71.4261 31V17H74.1061L82.3661 27.08H81.0661V17H84.2661V31H81.6061L73.3261 20.92H74.6261V31H71.4261ZM94.3385 31.24C93.2318 31.24 92.2118 31.0667 91.2785 30.72C90.3585 30.36 89.5518 29.8533 88.8585 29.2C88.1785 28.5467 87.6452 27.78 87.2585 26.9C86.8852 26.02 86.6985 25.0533 86.6985 24C86.6985 22.9467 86.8852 21.98 87.2585 21.1C87.6452 20.22 88.1852 19.4533 88.8785 18.8C89.5718 18.1467 90.3852 17.6467 91.3185 17.3C92.2518 16.94 93.2785 16.76 94.3985 16.76C95.6385 16.76 96.7518 16.9667 97.7385 17.38C98.7385 17.7933 99.5785 18.3933 100.258 19.18L98.1785 21.1C97.6718 20.5667 97.1185 20.1733 96.5185 19.92C95.9185 19.6533 95.2652 19.52 94.5585 19.52C93.8785 19.52 93.2585 19.6267 92.6985 19.84C92.1385 20.0533 91.6518 20.36 91.2385 20.76C90.8385 21.16 90.5252 21.6333 90.2985 22.18C90.0852 22.7267 89.9785 23.3333 89.9785 24C89.9785 24.6533 90.0852 25.2533 90.2985 25.8C90.5252 26.3467 90.8385 26.8267 91.2385 27.24C91.6518 27.64 92.1318 27.9467 92.6785 28.16C93.2385 28.3733 93.8518 28.48 94.5185 28.48C95.1585 28.48 95.7785 28.38 96.3785 28.18C96.9918 27.9667 97.5852 27.6133 98.1585 27.12L99.9985 29.46C99.2385 30.0333 98.3518 30.4733 97.3385 30.78C96.3385 31.0867 95.3385 31.24 94.3385 31.24ZM97.0385 29.04V23.78H99.9985V29.46L97.0385 29.04ZM111.672 23.3H118.392V25.9H111.672V23.3ZM111.912 31H108.672V17H119.252V19.6H111.912V31ZM128.109 31.24C127.002 31.24 125.976 31.06 125.029 30.7C124.096 30.34 123.282 29.8333 122.589 29.18C121.909 28.5267 121.376 27.76 120.989 26.88C120.616 26 120.429 25.04 120.429 24C120.429 22.96 120.616 22 120.989 21.12C121.376 20.24 121.916 19.4733 122.609 18.82C123.302 18.1667 124.116 17.66 125.049 17.3C125.982 16.94 126.996 16.76 128.089 16.76C129.196 16.76 130.209 16.94 131.129 17.3C132.062 17.66 132.869 18.1667 133.549 18.82C134.242 19.4733 134.782 20.24 135.169 21.12C135.556 21.9867 135.749 22.9467 135.749 24C135.749 25.04 135.556 26.0067 135.169 26.9C134.782 27.78 134.242 28.5467 133.549 29.2C132.869 29.84 132.062 30.34 131.129 30.7C130.209 31.06 129.202 31.24 128.109 31.24ZM128.089 28.48C128.716 28.48 129.289 28.3733 129.809 28.16C130.342 27.9467 130.809 27.64 131.209 27.24C131.609 26.84 131.916 26.3667 132.129 25.82C132.356 25.2733 132.469 24.6667 132.469 24C132.469 23.3333 132.356 22.7267 132.129 22.18C131.916 21.6333 131.609 21.16 131.209 20.76C130.822 20.36 130.362 20.0533 129.829 19.84C129.296 19.6267 128.716 19.52 128.089 19.52C127.462 19.52 126.882 19.6267 126.349 19.84C125.829 20.0533 125.369 20.36 124.969 20.76C124.569 21.16 124.256 21.6333 124.029 22.18C123.816 22.7267 123.709 23.3333 123.709 24C123.709 24.6533 123.816 25.26 124.029 25.82C124.256 26.3667 124.562 26.84 124.949 27.24C125.349 27.64 125.816 27.9467 126.349 28.16C126.882 28.3733 127.462 28.48 128.089 28.48ZM138.184 31V17H144.244C145.497 17 146.577 17.2067 147.484 17.62C148.391 18.02 149.091 18.6 149.584 19.36C150.077 20.12 150.324 21.0267 150.324 22.08C150.324 23.12 150.077 24.02 149.584 24.78C149.091 25.5267 148.391 26.1 147.484 26.5C146.577 26.9 145.497 27.1 144.244 27.1H139.984L141.424 25.68V31H138.184ZM147.084 31L143.584 25.92H147.044L150.584 31H147.084ZM141.424 26.04L139.984 24.52H144.064C145.064 24.52 145.811 24.3067 146.304 23.88C146.797 23.44 147.044 22.84 147.044 22.08C147.044 21.3067 146.797 20.7067 146.304 20.28C145.811 19.8533 145.064 19.64 144.064 19.64H139.984L141.424 18.1V26.04ZM161.455 27.8L161.275 24.06L167.975 17H171.575L165.535 23.5L163.735 25.42L161.455 27.8ZM158.555 31V17H161.775V31H158.555ZM168.135 31L163.155 24.9L165.275 22.6L171.915 31H168.135ZM173.36 31V17H176.6V31H173.36ZM179.922 31V17H186.282C187.802 17 189.142 17.2933 190.302 17.88C191.462 18.4533 192.369 19.26 193.022 20.3C193.676 21.34 194.002 22.5733 194.002 24C194.002 25.4133 193.676 26.6467 193.022 27.7C192.369 28.74 191.462 29.5533 190.302 30.14C189.142 30.7133 187.802 31 186.282 31H179.922ZM183.162 28.34H186.122C187.056 28.34 187.862 28.1667 188.542 27.82C189.236 27.46 189.769 26.9533 190.142 26.3C190.529 25.6467 190.722 24.88 190.722 24C190.722 23.1067 190.529 22.34 190.142 21.7C189.769 21.0467 189.236 20.5467 188.542 20.2C187.862 19.84 187.056 19.66 186.122 19.66H183.162V28.34ZM201.046 31.24C199.926 31.24 198.852 31.0933 197.826 30.8C196.799 30.4933 195.972 30.1 195.346 29.62L196.446 27.18C197.046 27.6067 197.752 27.96 198.566 28.24C199.392 28.5067 200.226 28.64 201.066 28.64C201.706 28.64 202.219 28.58 202.606 28.46C203.006 28.3267 203.299 28.1467 203.486 27.92C203.672 27.6933 203.766 27.4333 203.766 27.14C203.766 26.7667 203.619 26.4733 203.326 26.26C203.032 26.0333 202.646 25.8533 202.166 25.72C201.686 25.5733 201.152 25.44 200.566 25.32C199.992 25.1867 199.412 25.0267 198.826 24.84C198.252 24.6533 197.726 24.4133 197.246 24.12C196.766 23.8267 196.372 23.44 196.066 22.96C195.772 22.48 195.626 21.8667 195.626 21.12C195.626 20.32 195.839 19.5933 196.266 18.94C196.706 18.2733 197.359 17.7467 198.226 17.36C199.106 16.96 200.206 16.76 201.526 16.76C202.406 16.76 203.272 16.8667 204.126 17.08C204.979 17.28 205.732 17.5867 206.386 18L205.386 20.46C204.732 20.0867 204.079 19.8133 203.426 19.64C202.772 19.4533 202.132 19.36 201.506 19.36C200.879 19.36 200.366 19.4333 199.966 19.58C199.566 19.7267 199.279 19.92 199.106 20.16C198.932 20.3867 198.846 20.6533 198.846 20.96C198.846 21.32 198.992 21.6133 199.286 21.84C199.579 22.0533 199.966 22.2267 200.446 22.36C200.926 22.4933 201.452 22.6267 202.026 22.76C202.612 22.8933 203.192 23.0467 203.766 23.22C204.352 23.3933 204.886 23.6267 205.366 23.92C205.846 24.2133 206.232 24.6 206.526 25.08C206.832 25.56 206.986 26.1667 206.986 26.9C206.986 27.6867 206.766 28.4067 206.326 29.06C205.886 29.7133 205.226 30.24 204.346 30.64C203.479 31.04 202.379 31.24 201.046 31.24Z" fill="url(#paint0_linear_28_32)"/>
</g>
<defs>
<filter id="filter0_d_28_32" x="0.710205" y="0.26001" width="225.775" height="49.48" filterUnits="userSpaceOnUse" color-interpolation-filters="sRGB">
<feFlood flood-opacity="0" result="BackgroundImageFix"/>
<feColorMatrix in="SourceAlpha" type="matrix" values="0 0 0 0 0 0 0 0 0 0 0 0 0 0 0 0 0 0 127 0" result="hardAlpha"/>
<feOffset dx="2" dy="1"/>
<feGaussianBlur stdDeviation="8.75"/>
<feComposite in2="hardAlpha" operator="out"/>
<feColorMatrix type="matrix" values="0 0 0 0 1 0 0 0 0 0.54902 0 0 0 0 0 0 0 0 0.32 0"/>
<feBlend mode="normal" in2="BackgroundImageFix" result="effect1_dropShadow_28_32"/>
<feBlend mode="normal" in="SourceGraphic" in2="effect1_dropShadow_28_32" result="shape"/>
</filter>
<linearGradient id="paint0_linear_28_32" x1="11.3811" y1="24" x2="211.589" y2="24" gradientUnits="userSpaceOnUse">
<stop stop-color="#1E90FF"/>
<stop offset="1" stop-color="#FF8C00"/>
</linearGradient>
</defs>
</svg>
